<svg width="25" height="25" viewBox="0 0 25 25" fill="none" xmlns="http://www.w3.org/2000/svg">
<path d="M0 5.20833C0 2.33185 2.33185 0 5.20833 0H19.7917C22.6681 0 25 2.33185 25 5.20833V19.7917C25 22.6681 22.6681 25 19.7917 25H5.20833C2.33185 25 0 22.6681 0 19.7917V5.20833Z" fill="#55C860"/>
<path fill-rule="evenodd" clip-rule="evenodd" d="M11.0418 18.242C10.4635 18.2647 9.89234 17.9761 9.58287 17.4438L6.29697 11.7927C5.85249 11.0282 6.11626 10.0508 6.88614 9.6094C7.65601 9.16806 8.64044 9.42997 9.08492 10.1944L11.3259 14.0486L18.1981 7.22488C18.8267 6.60072 19.8459 6.60072 20.4745 7.22488C21.1031 7.84904 21.1031 8.86101 20.4745 9.48517L12.1259 17.7748C11.8254 18.0732 11.4356 18.2289 11.0418 18.242Z" fill="white"/>
<path fill-rule="evenodd" clip-rule="evenodd" d="M11.0418 18.242C10.4635 18.2647 9.89234 17.9761 9.58287 17.4438L6.29697 11.7927C5.85249 11.0282 6.11626 10.0508 6.88614 9.6094C7.65601 9.16806 8.64044 9.42997 9.08492 10.1944L11.3259 14.0486L18.1981 7.22488C18.8267 6.60072 19.8459 6.60072 20.4745 7.22488C21.1031 7.84904 21.1031 8.86101 20.4745 9.48517L12.1259 17.7748C11.8254 18.0732 11.4356 18.2289 11.0418 18.242Z" fill="white"/>
</svg>
