<svg width="17" height="27" viewBox="0 0 17 27" fill="none" xmlns="http://www.w3.org/2000/svg">
<path fill-rule="evenodd" clip-rule="evenodd" d="M3.96916 1.29522C3.25382 0.579873 2.09402 0.579873 1.37867 1.29522V1.29522C0.663329 2.01056 0.663329 3.17036 1.37867 3.8857L10.0135 12.5205C10.7945 13.3016 10.7945 14.5679 10.0135 15.3489L1.64404 23.7184C0.926189 24.4362 0.926189 25.6001 1.64404 26.3179V26.3179C2.36189 27.0358 3.52575 27.0358 4.2436 26.3179L16.4803 14.0812C16.4978 14.0637 16.4978 14.0353 16.4803 14.0178V14.0178C16.4628 14.0002 16.4628 13.9718 16.4803 13.9543L16.5014 13.9332C16.5306 13.904 16.5306 13.8567 16.5014 13.8275L3.96916 1.29522Z" fill="#22D4BF"/>
</svg>
