<svg width="27" height="16" viewBox="0 0 27 16" fill="none" xmlns="http://www.w3.org/2000/svg">
<path fill-rule="evenodd" clip-rule="evenodd" d="M1.29522 12.6486C0.579873 13.3639 0.579873 14.5237 1.29522 15.2391V15.2391C2.01056 15.9544 3.17036 15.9544 3.8857 15.2391L12.5205 6.60426C13.3016 5.82322 14.5679 5.82321 15.3489 6.60426L23.7184 14.9737C24.4362 15.6915 25.6001 15.6915 26.3179 14.9737V14.9737C27.0358 14.2558 27.0358 13.092 26.3179 12.3741L14.0812 0.137443C14.0637 0.119917 14.0353 0.119917 14.0178 0.137443V0.137443C14.0002 0.154969 13.9718 0.154969 13.9543 0.137443L13.9332 0.116322C13.904 0.0871315 13.8567 0.0871308 13.8275 0.116322L1.29522 12.6486Z" fill="#fcd7e6"/>
</svg>
